<svg width="26" height="26" viewBox="0 0 512 512" fill="none" xmlns="http://www.w3.org/2000/svg">
  <path d="M456.837 405.333V448H350.17v-42.667h106.667zm-128 0V448h-42.667v-42.667h42.667zm128-64v42.667H350.17v-42.667h106.667zm-128 0v42.667h-42.667v-42.667h42.667zM131.66 261.176C154.824 284.34 186.824 298.667 222.17 298.667c14.96 0 29.322-2.567 42.668-7.284v44.573c-13.638 3.51-27.935 5.377-42.668 5.377-47.129 0-89.796-19.103-120.681-50.988l30.171-30.169zM456.837 277.333V320H350.17v-42.667h106.667zm-128 0V320h-42.667v-42.667h42.667zM222.17 0c94.256 0 170.667 76.41 170.667 170.667 0 31.086-8.311 60.231-22.833 85.334h-52.429c20.27-22.646 32.595-53.551 32.595-86.667 0-70.693-57.308-128-128-128s-128 57.307-128 128c0 3.975.186 7.957.55 11.888l20.784-20.775L145.673 192 72.837 264.837 0 192l30.17-30.17 21.819 21.812a171.2 171.2 0 01-.486-13.976C51.503 76.41 127.913 0 222.17 0zm21.333 64v95.147l54.4 36.48-23.467 35.413-73.6-48.853V64h42.667z" 
        fill="#1C274C"/>
</svg>
